<svg width="29" height="29" viewBox="0 0 29 29" fill="none" xmlns="http://www.w3.org/2000/svg">
<path fill-rule="evenodd" clip-rule="evenodd" d="M0.656086 23.2269C-0.218689 24.1017 -0.218689 25.52 0.656086 26.3948L2.24001 27.9787C3.11478 28.8535 4.53307 28.8535 5.40784 27.9787L14.3173 19.0692L23.2271 27.9791C24.1019 28.8539 25.5202 28.8539 26.395 27.9791L27.9789 26.3952C28.8537 25.5204 28.8537 24.1021 27.9789 23.2273L19.069 14.3175L27.9787 5.40784C28.8535 4.53306 28.8535 3.11477 27.9787 2.24L26.3948 0.65608C25.52 -0.218694 24.1017 -0.218693 23.2269 0.656081L14.3173 9.56573L5.40804 0.656487C4.53326 -0.218287 3.11497 -0.218287 2.2402 0.656487L0.656281 2.24041C-0.218493 3.11518 -0.218493 4.53347 0.656281 5.40824L9.56553 14.3175L0.656086 23.2269Z" fill="white"/>
</svg>
